<svg xmlns="http://www.w3.org/2000/svg" xmlns:xlink="http://www.w3.org/1999/xlink" viewBox="0 0 200 250"><defs><style>.cls-1{isolation:isolate;}.cls-2{fill:url(#linear-gradient);}.cls-3{fill:url(#linear-gradient-2);}.cls-4,.cls-5{fill:#fff;}.cls-4{opacity:0.3;}.cls-6{opacity:0.15;mix-blend-mode:multiply;}.cls-7{fill:#231f20;}</style><linearGradient id="linear-gradient" x1="100" y1="250" x2="100" gradientUnits="userSpaceOnUse"><stop offset="0" stop-color="#dcddde"/><stop offset="0.11" stop-color="#e0e1e2"/><stop offset="0.56" stop-color="#edeeee"/><stop offset="1" stop-color="#f1f2f2"/></linearGradient><linearGradient id="linear-gradient-2" x1="100" y1="80" x2="100" gradientUnits="userSpaceOnUse"><stop offset="0" stop-color="#00aeef"/><stop offset="1" stop-color="#6dcff6"/></linearGradient></defs><g class="cls-1"><g id="Layer_2" data-name="Layer 2"><g id="icons"><polygon class="cls-2" points="200 250 0 250 0 0 140 0 200 60 200 250"/><polygon class="cls-3" points="140 0 0 0 0 80 200 80 200 60 140 0"/><polygon class="cls-4" points="140 60 200 60 140 0 140 60"/><path class="cls-5" d="M15.3,26.75a68,68,0,0,1,10.3-.7c6.4,0,10.55,1.15,13.8,3.6,3.5,2.6,5.7,6.75,5.7,12.7,0,6.45-2.35,10.9-5.6,13.65C36,59,30.55,60.35,24,60.35a66,66,0,0,1-8.65-.5ZM23,54.25a14,14,0,0,0,2.65.15c6.9.05,11.4-3.75,11.4-11.8,0-7-4-10.7-10.6-10.7a15.85,15.85,0,0,0-3.45.3Z"/><path class="cls-5" d="M83,42.8c0,11.05-6.7,17.75-16.55,17.75-10,0-15.85-7.55-15.85-17.15C50.55,33.3,57,25.75,67,25.75,77.3,25.75,83,33.5,83,42.8Zm-24.35.45c0,6.6,3.1,11.25,8.2,11.25s8.1-4.9,8.1-11.45c0-6-2.9-11.25-8.15-11.25S58.6,36.7,58.6,43.25Z"/><path class="cls-5" d="M114.7,59.05a21.72,21.72,0,0,1-8.65,1.45C94.4,60.5,88.4,53.25,88.4,43.65c0-11.5,8.2-17.9,18.4-17.9a19.87,19.87,0,0,1,8.3,1.5l-1.55,6a16.46,16.46,0,0,0-6.4-1.25c-6.05,0-10.75,3.65-10.75,11.15,0,6.75,4,11,10.8,11a19,19,0,0,0,6.35-1.1Z"/><g class="cls-6"><path class="cls-7" d="M59.65,210.73l-24-101.1H60.1l7.65,41.7c2.25,12,4.35,25,6,35.25h.3c1.65-11,4-23.1,6.6-35.55l8.55-41.4h24.3l8.1,42.6c2.25,11.85,3.9,22.65,5.4,33.9h.3c1.5-11.25,3.75-23.1,5.85-35.1l8.25-41.4h23.25l-26.1,101.1H113.8l-8.55-43.5c-2-10.2-3.6-19.65-4.8-31.2h-.3c-1.8,11.4-3.45,21-5.85,31.2l-9.6,43.5Z"/></g></g></g></g></svg>