<svg xmlns="http://www.w3.org/2000/svg" xmlns:xlink="http://www.w3.org/1999/xlink" viewBox="0 0 200 250"><defs><style>.cls-1{isolation:isolate;}.cls-2{fill:url(#linear-gradient);}.cls-3{fill:url(#linear-gradient-2);}.cls-4,.cls-5{fill:#fff;}.cls-4{opacity:0.3;}.cls-6{fill:#231f20;fill-rule:evenodd;opacity:0.15;mix-blend-mode:multiply;}</style><linearGradient id="linear-gradient" x1="100" y1="250" x2="100" gradientUnits="userSpaceOnUse"><stop offset="0" stop-color="#dcddde"/><stop offset="0.11" stop-color="#e0e1e2"/><stop offset="0.56" stop-color="#edeeee"/><stop offset="1" stop-color="#f1f2f2"/></linearGradient><linearGradient id="linear-gradient-2" x1="100" y1="80" x2="100" gradientUnits="userSpaceOnUse"><stop offset="0" stop-color="#c4161c"/><stop offset="1" stop-color="#ed1c24"/></linearGradient></defs><g class="cls-1"><g id="Layer_2" data-name="Layer 2"><g id="icons"><polygon class="cls-2" points="200 250 0 250 0 0 140 0 200 60 200 250"/><polygon class="cls-3" points="140 0 0 0 0 80 200 80 200 60 140 0"/><polygon class="cls-4" points="140 60 200 60 140 0 140 60"/><path class="cls-5" d="M15.3,26.75a62.38,62.38,0,0,1,10.3-.7c4.7,0,8,.9,10.3,2.7a9.85,9.85,0,0,1,3.6,7.8,10.77,10.77,0,0,1-3.1,8C33.8,47,30,48.1,25.45,48.1a19.19,19.19,0,0,1-2.6-.15V60H15.3Zm7.55,15.3a11.65,11.65,0,0,0,2.55.2c4.05,0,6.55-2,6.55-5.5,0-3.1-2.15-4.95-5.95-4.95a13,13,0,0,0-3.15.3Z"/><path class="cls-5" d="M46.35,26.75a68,68,0,0,1,10.3-.7c6.4,0,10.55,1.15,13.8,3.6,3.5,2.6,5.7,6.75,5.7,12.7,0,6.45-2.35,10.9-5.6,13.65C67,59,61.6,60.35,55,60.35a66,66,0,0,1-8.65-.5ZM54,54.25a14,14,0,0,0,2.65.15c6.9.05,11.4-3.75,11.4-11.8,0-7-4-10.7-10.6-10.7a15.85,15.85,0,0,0-3.45.3Z"/><path class="cls-5" d="M83.15,26.3h20.6v6.25h-13v7.7h12.1v6.2H90.8V60H83.15Z"/><path class="cls-6" d="M161.66,190.85c4-8.51-13.08-11.44-36.3-8.74a88.78,88.78,0,0,1-11.63-7.76c-9-7.34-15.52-19.65-19.61-32,1.86-10.33,1.74-19.11,1.95-28.6-.88,4.32-1.52,11.55-3.95,21.83-3.13-12-3.81-23.17-1.92-28.75a8,8,0,0,1,1.88-3c1.74.88,3.85,3,4.33,7.51,1.57-8.29-2.48-8-3.62-8l-2.56,0c-1.4,0-2.67,1.13-3.29,3.44-2.09,7.81-1.09,21.93,3.26,36.12a203.42,203.42,0,0,1-13.66,34.59C60,210.9,47.45,228.06,38.66,228.16c-.85-4.23,8-16.74,20.15-25.85-20.26,10.77-24.53,23.09-22.65,25.38l3.17,1.63c5.89,3,16-5,31.91-32.48,14.94-5.39,34.84-9.35,52.17-11.09,17.06,9.16,36.67,12.3,37.67,6.41-4.42,2.12-17.12-.83-30-7C148.7,184,162,185.58,161.66,190.85Zm-90.27,5.73c2.77-4.79,5.7-10.17,8.83-16.19,6.33-12.2,10.07-22.09,12.3-30.76,4.07,10.55,10,20.58,18,27.46a65.93,65.93,0,0,0,8.11,5.92A193.86,193.86,0,0,0,71.39,196.58Z"/></g></g></g></svg>