<svg xmlns="http://www.w3.org/2000/svg" xmlns:xlink="http://www.w3.org/1999/xlink" viewBox="0 0 200 250"><defs><style>.cls-1{isolation:isolate;}.cls-2{fill:url(#linear-gradient);}.cls-3{fill:url(#linear-gradient-2);}.cls-4,.cls-5{fill:#fff;}.cls-4{opacity:0.3;}.cls-6{fill:#231f20;opacity:0.15;mix-blend-mode:multiply;}</style><linearGradient id="linear-gradient" x1="100" y1="250" x2="100" gradientUnits="userSpaceOnUse"><stop offset="0" stop-color="#dcddde"/><stop offset="0.11" stop-color="#e0e1e2"/><stop offset="0.56" stop-color="#edeeee"/><stop offset="1" stop-color="#f1f2f2"/></linearGradient><linearGradient id="linear-gradient-2" x1="100" y1="80" x2="100" gradientUnits="userSpaceOnUse"><stop offset="0" stop-color="#f49ac1"/><stop offset="1" stop-color="#f8c1d9"/></linearGradient></defs><g class="cls-1"><g id="Layer_2" data-name="Layer 2"><g id="icons"><polygon class="cls-2" points="200 250 0 250 0 0 140 0 200 60 200 250"/><polygon class="cls-3" points="140 0 0 0 0 80 200 80 200 60 140 0"/><polygon class="cls-4" points="140 60 200 60 140 0 140 60"/><path class="cls-5" d="M15.3,26.75a62.38,62.38,0,0,1,10.3-.7c4.7,0,8,.9,10.3,2.7a9.85,9.85,0,0,1,3.6,7.8,10.77,10.77,0,0,1-3.1,8C33.8,47,30,48.1,25.45,48.1a19.19,19.19,0,0,1-2.6-.15V60H15.3Zm7.55,15.3a11.65,11.65,0,0,0,2.55.2c4.05,0,6.55-2,6.55-5.5,0-3.1-2.15-4.95-5.95-4.95a13,13,0,0,0-3.15.3Z"/><path class="cls-5" d="M46.35,60V26.3h8.9l7,12.35a97.71,97.71,0,0,1,5.5,11.55h.15a125.06,125.06,0,0,1-.65-14.05V26.3h7V60h-8l-7.2-13A125.18,125.18,0,0,1,53.2,35.1l-.15,0c.2,4.45.3,9.2.3,14.7V60Z"/><path class="cls-5" d="M111,58.45a37.71,37.71,0,0,1-11.25,1.9c-6.15,0-10.6-1.55-13.71-4.55a16.31,16.31,0,0,1-4.75-12.25c0-11.2,8.21-17.6,19.26-17.6a23.21,23.21,0,0,1,9.35,1.65l-1.6,6.1a18.67,18.67,0,0,0-7.85-1.45c-6.35,0-11.16,3.6-11.16,10.9,0,7,4.36,11.05,10.61,11.05a10.2,10.2,0,0,0,3.75-.5V46.65h-5.2V40.7H111Z"/><path class="cls-6" d="M130.64,219.5H142.9V207.24H130.64Zm-24.51,0h12.25V207.24H106.13Zm0-61.29V146H93.87v12.25ZM69.36,170.47v12.26H81.62V170.47Zm98.05,0V158.21H155.15v12.26Zm0-24.51V133.7H155.15V146Zm0,49V182.73H155.15V195Zm0,24.52V207.24H155.15V219.5Zm-73.54-49v12.26h12.26V170.47Zm-61.28,49H44.85V207.24H32.59ZM69.36,109.19H57.1v12.25H69.36Zm24.51,0H81.62v12.25H93.87Zm24.51,0H106.13v12.25h12.25ZM32.59,182.73V195H44.85V182.73Zm0-73.54v12.25H44.85V109.19Zm0,49v12.26H44.85V158.21Zm110.31-49H130.64v12.25H142.9ZM57.1,219.5H69.36V207.24H57.1Zm49-49h12.25V158.21H106.13ZM81.62,158.21v12.26H93.87V158.21Zm-49-24.51V146H44.85V133.7Zm49,85.8H93.87V207.24H81.62Zm0-73.54H69.36v12.25H81.62ZM44.85,195v12.26H57.1V195ZM57.1,170.47H44.85v12.26H57.1ZM69.36,195v12.26H81.62V195ZM57.1,146H44.85v12.25H57.1Zm0-24.52H44.85V133.7H57.1Zm61.28,61.29h12.26V170.47H118.38Zm24.52,24.51h12.25V195H142.9Zm0-85.8V133.7h12.25V121.44Zm0,36.77h12.25V146H142.9Zm24.51-49H155.15v12.25h12.26ZM142.9,182.73h12.25V170.47H142.9Zm-61.28-49V121.44H69.36V133.7ZM118.38,195v12.26h12.26V195Zm-24.51,0v12.26h12.26V195Zm12.26-61.28V121.44H93.87V133.7ZM93.87,146V133.7H81.62V146ZM69.36,158.21H57.1v12.26H69.36Zm49-12.25V133.7H106.13V146ZM57.1,182.73V195H69.36V182.73Zm61.28-24.52h12.26V146H118.38Zm-49-24.51H57.1V146H69.36ZM130.64,146H142.9V133.7H130.64Zm0-12.26V121.44H118.38V133.7Zm0,36.77H142.9V158.21H130.64Zm0,24.51H142.9V182.73H130.64Zm-49-12.25V195H93.87V182.73Zm24.51,0V195h12.25V182.73Z"/></g></g></g></svg>