<svg xmlns="http://www.w3.org/2000/svg" xmlns:xlink="http://www.w3.org/1999/xlink" viewBox="0 0 200 250"><defs><style>.cls-1{isolation:isolate;}.cls-2{fill:url(#linear-gradient);}.cls-3{fill:url(#linear-gradient-2);}.cls-4,.cls-5{fill:#fff;}.cls-4{opacity:0.3;}.cls-6{opacity:0.15;mix-blend-mode:multiply;}.cls-7{fill:#231f20;}</style><linearGradient id="linear-gradient" x1="100" y1="250" x2="100" gradientUnits="userSpaceOnUse"><stop offset="0" stop-color="#dcddde"/><stop offset="0.11" stop-color="#e0e1e2"/><stop offset="0.56" stop-color="#edeeee"/><stop offset="1" stop-color="#f1f2f2"/></linearGradient><linearGradient id="linear-gradient-2" x1="100" y1="80" x2="100" gradientUnits="userSpaceOnUse"><stop offset="0" stop-color="#f15a22"/><stop offset="1" stop-color="#faa61a"/></linearGradient></defs><g class="cls-1"><g id="Layer_2" data-name="Layer 2"><g id="icons"><polygon class="cls-2" points="200 250 0 250 0 0 140 0 200 60 200 250"/><polygon class="cls-3" points="140 0 0 0 0 80 200 80 200 60 140 0"/><polygon class="cls-4" points="140 60 200 60 140 0 140 60"/><path class="cls-5" d="M15.3,26.75a62.38,62.38,0,0,1,10.3-.7c4.7,0,8,.9,10.3,2.7a9.85,9.85,0,0,1,3.6,7.8,10.77,10.77,0,0,1-3.1,8C33.8,47,30,48.1,25.45,48.1a19.19,19.19,0,0,1-2.6-.15V60H15.3Zm7.55,15.3a11.65,11.65,0,0,0,2.55.2c4.05,0,6.55-2,6.55-5.5,0-3.1-2.15-4.95-5.95-4.95a13,13,0,0,0-3.15.3Z"/><path class="cls-5" d="M46.35,26.75a62.38,62.38,0,0,1,10.3-.7c4.7,0,8.05.9,10.3,2.7a9.85,9.85,0,0,1,3.6,7.8,10.77,10.77,0,0,1-3.1,8C64.85,47,61,48.1,56.5,48.1A19.19,19.19,0,0,1,53.9,48V60H46.35Zm7.55,15.3a11.65,11.65,0,0,0,2.55.2c4,0,6.55-2,6.55-5.5,0-3.1-2.15-4.95-6-4.95a13,13,0,0,0-3.15.3Z"/><path class="cls-5" d="M83.9,32.7H74.85V26.3h25.9v6.4h-9.2V60H83.9Z"/><g class="cls-6"><path class="cls-7" d="M66.32,111c7.05-1.2,17-2.1,30.9-2.1s24.15,2.7,30.9,8.1a29.56,29.56,0,0,1,10.8,23.4c0,9.9-3.3,18.3-9.3,24-7.8,7.35-19.35,10.65-32.85,10.65a57.57,57.57,0,0,1-7.8-.45v36.15H66.32ZM89,156.88a34.94,34.94,0,0,0,7.65.6c12.15,0,19.65-6.15,19.65-16.5,0-9.3-6.45-14.85-17.85-14.85A39,39,0,0,0,89,127Z"/></g></g></g></g></svg>