<svg xmlns="http://www.w3.org/2000/svg" xmlns:xlink="http://www.w3.org/1999/xlink" viewBox="0 0 200 250"><defs><style>.cls-1{isolation:isolate;}.cls-2{fill:url(#linear-gradient);}.cls-3{fill:#231f20;opacity:0.15;mix-blend-mode:multiply;}.cls-4{fill:url(#linear-gradient-2);}.cls-5,.cls-6{fill:#fff;}.cls-5{opacity:0.3;}</style><linearGradient id="linear-gradient" x1="100" y1="250" x2="100" gradientUnits="userSpaceOnUse"><stop offset="0" stop-color="#dcddde"/><stop offset="0.11" stop-color="#e0e1e2"/><stop offset="0.56" stop-color="#edeeee"/><stop offset="1" stop-color="#f1f2f2"/></linearGradient><linearGradient id="linear-gradient-2" x1="100" y1="80" x2="100" gradientUnits="userSpaceOnUse"><stop offset="0" stop-color="#92278f"/><stop offset="1" stop-color="#a967aa"/></linearGradient></defs><g class="cls-1"><g id="Layer_2" data-name="Layer 2"><g id="icons"><polygon class="cls-2" points="200 250 0 250 0 0 140 0 200 60 200 250"/><path class="cls-3" d="M42.48,104.62H55.35a2.48,2.48,0,0,0,2.47-2.48,3.15,3.15,0,0,1,6.3,0,2.48,2.48,0,1,0,4.95,0V91.34a2.48,2.48,0,0,0-4.95,0,3.15,3.15,0,1,1-6.3,0,2.47,2.47,0,0,0-2.47-2.47H42.48A2.47,2.47,0,0,0,40,91.34v10.8A2.48,2.48,0,0,0,42.48,104.62Zm0,115.5H55.35a2.48,2.48,0,0,0,2.47-2.48,3.15,3.15,0,0,1,6.3,0,2.48,2.48,0,1,0,4.95,0v-10.8a2.48,2.48,0,0,0-4.95,0,3.15,3.15,0,0,1-6.3,0,2.48,2.48,0,0,0-2.47-2.47H42.48A2.48,2.48,0,0,0,40,206.84v10.8A2.48,2.48,0,0,0,42.48,220.12Zm0-138.6H55.35A2.48,2.48,0,0,0,57.82,79a3.15,3.15,0,1,1,6.3,0,2.48,2.48,0,1,0,4.95,0V68.24a2.48,2.48,0,0,0-4.95,0,3.15,3.15,0,0,1-6.3,0,2.48,2.48,0,0,0-2.47-2.47H42.48A2.48,2.48,0,0,0,40,68.24V79A2.48,2.48,0,0,0,42.48,81.52Zm0,92.4H55.35a2.48,2.48,0,0,0,2.47-2.48,3.15,3.15,0,0,1,6.3,0,2.48,2.48,0,1,0,4.95,0v-10.8a2.48,2.48,0,0,0-4.95,0,3.15,3.15,0,0,1-6.3,0,2.47,2.47,0,0,0-2.47-2.47H42.48A2.47,2.47,0,0,0,40,160.64v10.8A2.48,2.48,0,0,0,42.48,173.92Zm0-23.1H55.35a2.48,2.48,0,0,0,2.47-2.48,3.15,3.15,0,0,1,6.3,0,2.48,2.48,0,1,0,4.95,0v-10.8a2.48,2.48,0,0,0-4.95,0,3.15,3.15,0,0,1-6.3,0,2.47,2.47,0,0,0-2.47-2.47H42.48A2.47,2.47,0,0,0,40,137.54v10.8A2.48,2.48,0,0,0,42.48,150.82Zm0-23.1H55.35a2.48,2.48,0,0,0,2.47-2.48,3.15,3.15,0,0,1,6.3,0,2.48,2.48,0,1,0,4.95,0v-10.8a2.48,2.48,0,0,0-4.95,0,3.15,3.15,0,0,1-6.3,0A2.47,2.47,0,0,0,55.35,112H42.48A2.47,2.47,0,0,0,40,114.44v10.8A2.48,2.48,0,0,0,42.48,127.72ZM85.05.67A2.48,2.48,0,0,0,86.73,0H70.5a2.44,2.44,0,0,0,1.67.67ZM62.6,0H59.25a2.44,2.44,0,0,0,1.68.67A2.44,2.44,0,0,0,62.6,0ZM42.48,58.42H55.35a2.48,2.48,0,0,0,2.47-2.48,3.15,3.15,0,0,1,6.3,0,2.48,2.48,0,1,0,4.95,0V45.14a2.48,2.48,0,0,0-4.95,0,3.15,3.15,0,0,1-6.3,0,2.47,2.47,0,0,0-2.47-2.47H42.48A2.47,2.47,0,0,0,40,45.14v10.8A2.48,2.48,0,0,0,42.48,58.42Zm0-46.2H55.35a2.48,2.48,0,0,0,2.47-2.48,3.15,3.15,0,0,1,6.3,0,2.48,2.48,0,1,0,4.95,0V0H63.92a3.12,3.12,0,0,1-3,2.09A3.12,3.12,0,0,1,58,0H40V9.74A2.48,2.48,0,0,0,42.48,12.22Zm0,23.1H55.35a2.48,2.48,0,0,0,2.47-2.48,3.15,3.15,0,0,1,6.3,0,2.48,2.48,0,1,0,4.95,0V22a2.48,2.48,0,0,0-4.95,0,3.15,3.15,0,0,1-6.3,0,2.47,2.47,0,0,0-2.47-2.47H42.48A2.47,2.47,0,0,0,40,22v10.8A2.48,2.48,0,0,0,42.48,35.32Zm0,161.7H55.35a2.48,2.48,0,0,0,2.47-2.48,3.15,3.15,0,0,1,6.3,0,2.48,2.48,0,1,0,4.95,0v-10.8a2.48,2.48,0,0,0-4.95,0,3.15,3.15,0,1,1-6.3,0,2.47,2.47,0,0,0-2.47-2.47H42.48A2.47,2.47,0,0,0,40,183.74v10.8A2.48,2.48,0,0,0,42.48,197ZM85.05,77.32H72.17a2.47,2.47,0,0,0-2.47,2.47,3.15,3.15,0,1,1-6.3,0,2.48,2.48,0,0,0-4.95,0v10.8a2.48,2.48,0,1,0,4.95,0,3.15,3.15,0,1,1,6.3,0,2.48,2.48,0,0,0,2.47,2.48H85.05a2.48,2.48,0,0,0,2.47-2.48V79.79A2.47,2.47,0,0,0,85.05,77.32ZM61,237.59a3.15,3.15,0,0,1,3.15,3.15,2.48,2.48,0,1,0,4.95,0v-10.8a2.48,2.48,0,0,0-4.95,0,3.15,3.15,0,0,1-6.3,0,2.47,2.47,0,0,0-2.47-2.47H42.48A2.47,2.47,0,0,0,40,229.94v10.8a2.48,2.48,0,0,0,2.48,2.48H55.35a2.48,2.48,0,0,0,2.47-2.48A3.15,3.15,0,0,1,61,237.59ZM85.05,100.42H72.17a2.47,2.47,0,0,0-2.47,2.47,3.15,3.15,0,0,1-6.3,0,2.48,2.48,0,0,0-4.95,0v10.8a2.48,2.48,0,1,0,4.95,0,3.15,3.15,0,0,1,6.3,0,2.48,2.48,0,0,0,2.47,2.48H85.05a2.48,2.48,0,0,0,2.47-2.48v-10.8A2.47,2.47,0,0,0,85.05,100.42Zm0,23.1H72.17A2.47,2.47,0,0,0,69.7,126a3.15,3.15,0,1,1-6.3,0,2.48,2.48,0,0,0-4.95,0v10.8a2.48,2.48,0,1,0,4.95,0,3.15,3.15,0,0,1,6.3,0,2.48,2.48,0,0,0,2.47,2.48H85.05a2.48,2.48,0,0,0,2.47-2.48V126A2.47,2.47,0,0,0,85.05,123.52ZM85.05,8H72.17a2.47,2.47,0,0,0-2.47,2.47,3.15,3.15,0,0,1-6.3,0,2.48,2.48,0,0,0-4.95,0v10.8a2.48,2.48,0,1,0,4.95,0,3.15,3.15,0,0,1,6.3,0,2.48,2.48,0,0,0,2.47,2.48H85.05a2.48,2.48,0,0,0,2.47-2.48V10.49A2.47,2.47,0,0,0,85.05,8Zm0,23.1H72.17a2.48,2.48,0,0,0-2.47,2.47,3.15,3.15,0,1,1-6.3,0,2.48,2.48,0,0,0-4.95,0v10.8a2.48,2.48,0,1,0,4.95,0,3.15,3.15,0,0,1,6.3,0,2.48,2.48,0,0,0,2.47,2.48H85.05a2.48,2.48,0,0,0,2.47-2.48V33.59A2.48,2.48,0,0,0,85.05,31.12Zm0,23.1H72.17a2.47,2.47,0,0,0-2.47,2.47,3.15,3.15,0,0,1-6.3,0,2.48,2.48,0,0,0-4.95,0v10.8a2.48,2.48,0,1,0,4.95,0,3.15,3.15,0,0,1,6.3,0A2.48,2.48,0,0,0,72.17,70H85.05a2.48,2.48,0,0,0,2.47-2.48V56.69A2.47,2.47,0,0,0,85.05,54.22Zm0,184.8H72.17a2.48,2.48,0,0,0-2.47,2.47,3.15,3.15,0,0,1-6.3,0,2.48,2.48,0,0,0-4.95,0V250h6a3.12,3.12,0,0,1,4.3,0H87.52v-8.51A2.48,2.48,0,0,0,85.05,239Zm0-23.1H72.17a2.47,2.47,0,0,0-2.47,2.47,3.15,3.15,0,0,1-6.3,0,2.48,2.48,0,0,0-4.95,0v10.8a2.48,2.48,0,1,0,4.95,0,3.15,3.15,0,0,1,6.3,0,2.48,2.48,0,0,0,2.47,2.48H85.05a2.48,2.48,0,0,0,2.47-2.48v-10.8A2.47,2.47,0,0,0,85.05,215.92Zm0-23.1H72.17a2.47,2.47,0,0,0-2.47,2.47,3.15,3.15,0,0,1-6.3,0,2.48,2.48,0,0,0-4.95,0v10.8a2.48,2.48,0,1,0,4.95,0,3.15,3.15,0,0,1,6.3,0,2.48,2.48,0,0,0,2.47,2.48H85.05a2.48,2.48,0,0,0,2.47-2.48v-10.8A2.47,2.47,0,0,0,85.05,192.82Zm0-46.2H72.17a2.47,2.47,0,0,0-2.47,2.47,3.15,3.15,0,0,1-6.3,0,2.48,2.48,0,0,0-4.95,0v10.8a2.48,2.48,0,1,0,4.95,0,3.15,3.15,0,0,1,6.3,0,2.48,2.48,0,0,0,2.47,2.48H85.05a2.48,2.48,0,0,0,2.47-2.48v-10.8A2.47,2.47,0,0,0,85.05,146.62Zm0,23.1H72.17a2.47,2.47,0,0,0-2.47,2.47,3.15,3.15,0,0,1-6.3,0,2.48,2.48,0,0,0-4.95,0V183a2.48,2.48,0,1,0,4.95,0,3.15,3.15,0,0,1,6.3,0,2.48,2.48,0,0,0,2.47,2.48H85.05A2.48,2.48,0,0,0,87.52,183v-10.8A2.47,2.47,0,0,0,85.05,169.72Z"/><polygon class="cls-4" points="140 0 0 0 0 80 200 80 200 60 140 0"/><polygon class="cls-5" points="140 60 200 60 140 0 140 60"/><path class="cls-6" d="M13.15,55.9l16-23.1v-.2H14.65V26.3H39.1v4.4L23.4,53.5v.2h16V60H13.15Z"/><path class="cls-6" d="M53.8,26.3V60H46.15V26.3Z"/><path class="cls-6" d="M62.39,26.75a62.61,62.61,0,0,1,10.31-.7c4.7,0,8,.9,10.3,2.7a9.85,9.85,0,0,1,3.6,7.8,10.77,10.77,0,0,1-3.1,8c-2.6,2.45-6.45,3.55-11,3.55A19.19,19.19,0,0,1,70,48V60H62.39ZM70,42.05a11.65,11.65,0,0,0,2.55.2c4,0,6.55-2,6.55-5.5,0-3.1-2.15-4.95-6-4.95a13,13,0,0,0-3.15.3Z"/></g></g></g></svg>