<svg xmlns="http://www.w3.org/2000/svg" xmlns:xlink="http://www.w3.org/1999/xlink" viewBox="0 0 200 250"><defs><style>.cls-1{isolation:isolate;}.cls-2{fill:url(#linear-gradient);}.cls-3{fill:url(#linear-gradient-2);}.cls-4,.cls-5{fill:#fff;}.cls-4{opacity:0.3;}.cls-6{fill:#231f20;opacity:0.15;mix-blend-mode:multiply;}</style><linearGradient id="linear-gradient" x1="100" y1="250" x2="100" gradientUnits="userSpaceOnUse"><stop offset="0" stop-color="#dcddde"/><stop offset="0.11" stop-color="#e0e1e2"/><stop offset="0.56" stop-color="#edeeee"/><stop offset="1" stop-color="#f1f2f2"/></linearGradient><linearGradient id="linear-gradient-2" x1="100" y1="80" x2="100" gradientUnits="userSpaceOnUse"><stop offset="0" stop-color="#7b6541"/><stop offset="1" stop-color="#ba9765"/></linearGradient></defs><g class="cls-1"><g id="Layer_2" data-name="Layer 2"><g id="icons"><polygon class="cls-2" points="200 250 0 250 0 0 140 0 200 60 200 250"/><polygon class="cls-3" points="140 0 0 0 0 80 200 80 200 60 140 0"/><polygon class="cls-4" points="140 60 200 60 140 0 140 60"/><path class="cls-5" d="M23.15,51.35,20.75,60h-7.9l10.3-33.7h10L43.6,60H35.4l-2.6-8.65Zm8.55-5.7L29.6,38.5c-.6-2-1.2-4.5-1.7-6.5h-.1c-.5,2-1,4.55-1.55,6.5l-2,7.15Z"/><path class="cls-5" d="M55.1,60,44.3,26.3h8.35l4.1,14.25c1.15,4,2.2,7.85,3,12.05h.15c.85-4.05,1.9-8.05,3.05-11.9l4.3-14.4h8.1L64,60Z"/><path class="cls-5" d="M88.6,26.3V60H81V26.3Z"/><path class="cls-6" d="M100,108.92a54.42,54.42,0,1,0,54.42,54.42A54.42,54.42,0,0,0,100,108.92Zm32.88,61.3-45,26C81.33,200,76,196.89,76,189.32V137.37c0-7.57,5.36-10.67,11.92-6.89l45,26C139.44,160.24,139.44,166.44,132.88,170.22Z"/></g></g></g></svg>