<svg xmlns="http://www.w3.org/2000/svg" xmlns:xlink="http://www.w3.org/1999/xlink" viewBox="0 0 200 250"><defs><style>.cls-1{isolation:isolate;}.cls-2{fill:url(#linear-gradient);}.cls-3{fill:url(#linear-gradient-2);}.cls-4,.cls-5{fill:#fff;}.cls-4{opacity:0.3;}.cls-6{fill:#231f20;opacity:0.15;mix-blend-mode:multiply;}</style><linearGradient id="linear-gradient" x1="100" y1="250" x2="100" gradientUnits="userSpaceOnUse"><stop offset="0" stop-color="#dcddde"/><stop offset="0.11" stop-color="#e0e1e2"/><stop offset="0.56" stop-color="#edeeee"/><stop offset="1" stop-color="#f1f2f2"/></linearGradient><linearGradient id="linear-gradient-2" x1="100" y1="80" x2="100" gradientUnits="userSpaceOnUse"><stop offset="0" stop-color="#faa61a"/><stop offset="1" stop-color="#fecf8d"/></linearGradient></defs><g class="cls-1"><g id="Layer_2" data-name="Layer 2"><g id="icons"><polygon class="cls-2" points="200 250 0 250 0 0 140 0 200 60 200 250"/><polygon class="cls-3" points="140 0 0 0 0 80 200 80 200 60 140 0"/><polygon class="cls-4" points="140 60 200 60 140 0 140 60"/><path class="cls-5" d="M40.05,59.05A21.72,21.72,0,0,1,31.4,60.5c-11.65,0-17.65-7.25-17.65-16.85,0-11.5,8.2-17.9,18.4-17.9a19.87,19.87,0,0,1,8.3,1.5l-1.55,6a16.46,16.46,0,0,0-6.4-1.25c-6.05,0-10.75,3.65-10.75,11.15,0,6.75,4,11,10.8,11a19,19,0,0,0,6.35-1.1Z"/><path class="cls-5" d="M47.3,52.15a19.44,19.44,0,0,0,8.45,2.1c3.5,0,5.35-1.45,5.35-3.65s-1.6-3.3-5.65-4.75c-5.6-2-9.25-5.05-9.25-10C46.2,30.15,51,25.75,59,25.75a20.65,20.65,0,0,1,8.6,1.7l-1.7,6.15a16,16,0,0,0-7-1.6c-3.3,0-4.9,1.5-4.9,3.25,0,2.15,1.9,3.1,6.25,4.75,5.95,2.2,8.75,5.3,8.75,10,0,5.65-4.35,10.45-13.6,10.45a22.05,22.05,0,0,1-9.55-2Z"/><path class="cls-5" d="M76.29,52.15a19.53,19.53,0,0,0,8.46,2.1c3.5,0,5.35-1.45,5.35-3.65s-1.6-3.3-5.65-4.75c-5.6-2-9.26-5.05-9.26-10C75.19,30.15,80,25.75,88,25.75a20.65,20.65,0,0,1,8.6,1.7l-1.7,6.15a16,16,0,0,0-7-1.6c-3.3,0-4.9,1.5-4.9,3.25,0,2.15,1.9,3.1,6.25,4.75,5.95,2.2,8.75,5.3,8.75,10,0,5.65-4.35,10.45-13.6,10.45a22.14,22.14,0,0,1-9.56-2Z"/><path class="cls-6" d="M21.21,107V220.67H178.79V107ZM98,212.67H29.21v-22.4H98Zm0-50.81H29.21V139.45H98Zm72.79,26.41H102V165.86h68.79Zm0-50.82H102V115h68.79Z"/></g></g></g></svg>