<svg xmlns="http://www.w3.org/2000/svg" xmlns:xlink="http://www.w3.org/1999/xlink" viewBox="0 0 200 250"><defs><style>.cls-1{isolation:isolate;}.cls-2{fill:url(#linear-gradient);}.cls-3{fill:url(#linear-gradient-2);}.cls-4,.cls-5{fill:#fff;}.cls-4{opacity:0.3;}.cls-6{fill:#231f20;opacity:0.15;mix-blend-mode:multiply;}</style><linearGradient id="linear-gradient" x1="100" y1="250" x2="100" gradientUnits="userSpaceOnUse"><stop offset="0" stop-color="#dcddde"/><stop offset="0.11" stop-color="#e0e1e2"/><stop offset="0.56" stop-color="#edeeee"/><stop offset="1" stop-color="#f1f2f2"/></linearGradient><linearGradient id="linear-gradient-2" x1="100" y1="80" x2="100" gradientUnits="userSpaceOnUse"><stop offset="0" stop-color="#7fb539"/><stop offset="1" stop-color="#bfd730"/></linearGradient></defs><g class="cls-1"><g id="Layer_2" data-name="Layer 2"><g id="icons"><polygon class="cls-2" points="200 250 0 250 0 0 140 0 200 60 200 250"/><polygon class="cls-3" points="140 0 0 0 0 80 200 80 200 60 140 0"/><polygon class="cls-4" points="140 60 200 60 140 0 140 60"/><path class="cls-5" d="M43.45,58.45a37.71,37.71,0,0,1-11.25,1.9c-6.15,0-10.6-1.55-13.7-4.55a16.31,16.31,0,0,1-4.75-12.25C13.8,32.35,22,26,33,26a23.21,23.21,0,0,1,9.35,1.65l-1.6,6.1a18.67,18.67,0,0,0-7.85-1.45c-6.35,0-11.15,3.6-11.15,10.9,0,7,4.35,11.05,10.6,11.05a10.2,10.2,0,0,0,3.75-.5V46.65H30.9V40.7H43.45Z"/><path class="cls-5" d="M59.05,26.3V60H51.4V26.3Z"/><path class="cls-5" d="M67.65,26.3h20.6v6.25h-13v7.7H87.4v6.2H75.3V60H67.65Z"/><path class="cls-6" d="M108.24,190v11.13h40v-40h-21.1a27.22,27.22,0,0,1,.13,2.72A27.53,27.53,0,0,1,108.24,190ZM73.71,173h.16a27.48,27.48,0,0,1,18.21-35.47A22.49,22.49,0,1,0,73.71,173Zm-41.32-63.4v110.3H167.21V109.56Zm124.82,100.3H42.39v-90.3H157.21Zm-79.89-46a22.48,22.48,0,1,0,22.47-22.48A22.48,22.48,0,0,0,77.32,163.86Zm12.55-10.73c0-3.13,2.21-4.41,4.92-2.84L113.38,161c2.71,1.56,2.71,4.12,0,5.68L94.79,177.43c-2.71,1.57-4.92.29-4.92-2.84Z"/></g></g></g></svg>