<svg xmlns="http://www.w3.org/2000/svg" xmlns:xlink="http://www.w3.org/1999/xlink" viewBox="0 0 200 250"><defs><style>.cls-1{isolation:isolate;}.cls-2{fill:url(#linear-gradient);}.cls-3{fill:url(#linear-gradient-2);}.cls-4,.cls-5{fill:#fff;}.cls-4{opacity:0.3;}.cls-6{fill:#231f20;opacity:0.15;mix-blend-mode:multiply;}</style><linearGradient id="linear-gradient" x1="100" y1="250" x2="100" gradientUnits="userSpaceOnUse"><stop offset="0" stop-color="#dcddde"/><stop offset="0.11" stop-color="#e0e1e2"/><stop offset="0.56" stop-color="#edeeee"/><stop offset="1" stop-color="#f1f2f2"/></linearGradient><linearGradient id="linear-gradient-2" x1="100" y1="80" x2="100" gradientUnits="userSpaceOnUse"><stop offset="0" stop-color="#39bb9d"/><stop offset="1" stop-color="#b0dfdb"/></linearGradient></defs><g class="cls-1"><g id="Layer_2" data-name="Layer 2"><g id="icons"><polygon class="cls-2" points="200 250 0 250 0 0 140 0 200 60 200 250"/><polygon class="cls-3" points="140 0 0 0 0 80 200 80 200 60 140 0"/><polygon class="cls-4" points="140 60 200 60 140 0 140 60"/><path class="cls-5" d="M21.85,24.1V35.75H33.14V24.1H40V54.43H33.14V41.74H21.85V54.43H15V24.1Z"/><path class="cls-5" d="M53.62,29.86H45.48V24.1h23.3v5.76H60.5V54.43H53.62Z"/><path class="cls-5" d="M99.7,42.82c-.14-3.65-.27-8.06-.27-12.47h-.14c-.94,3.87-2.2,8.19-3.37,11.75L92.23,53.93H86.87L83.63,42.19c-1-3.56-2-7.88-2.74-11.84H80.8c-.18,4.1-.32,8.78-.54,12.56l-.54,11.52H73.38L75.31,24.1h9.13l3,10.12c1,3.51,1.89,7.29,2.57,10.85h.13C91,41.56,92,37.55,93,34.18L96.23,24.1h9l1.66,30.33h-6.7Z"/><path class="cls-5" d="M113.92,24.1h6.88V48.67h12.06v5.76H113.92Z"/><path class="cls-6" d="M105.17,115.2c-.84,0-1.68-.07-2.53-.07a51.23,51.23,0,0,0-49.93,39.8,136.32,136.32,0,0,1,9.92-11.09C75.08,131.39,90.68,121.55,105.17,115.2ZM51.42,212.61c-9.45-9.45,4.1-38.33,30.28-64.5s55.05-39.73,64.5-30.28c3.58,3.59,3.84,10,1.36,18,.54.77,1,1.57,1.54,2.37,3.6-11,3.08-20.37-2.64-26.09-9.7-9.7-54.15,4.91-82.41,33.18s-35.31,59.58-25.72,69.17c6.69,6.69,23.22,6.2,37.65.31-1.06-.62-2.11-1.28-3.13-2C63.26,216.46,55.51,216.7,51.42,212.61Zm102.94-38.78A50.76,50.76,0,0,0,152,151.66,52.69,52.69,0,0,0,124.34,120C112.1,125,97,135.62,83.11,149.52,70,162.68,60.73,175.63,55.51,186.38c.5,1.2,1,2.38,1.63,3.52a51.24,51.24,0,0,0,94.8-5.28L151.1,183H123.38a22.12,22.12,0,0,1-39.2.42,21.73,21.73,0,0,1-1.32-3,22.38,22.38,0,0,1-1-6.48v-.11ZM103.47,140a21.52,21.52,0,0,1,18.86,11.14,21.26,21.26,0,0,1,1.84,7.52h-42A21.55,21.55,0,0,1,103.47,140Z"/></g></g></g></svg>