<svg xmlns="http://www.w3.org/2000/svg" xmlns:xlink="http://www.w3.org/1999/xlink" viewBox="0 0 200 250"><defs><style>.cls-1{isolation:isolate;}.cls-2{fill:url(#linear-gradient);}.cls-3{fill:url(#linear-gradient-2);}.cls-4,.cls-5{fill:#fff;}.cls-4{opacity:0.3;}.cls-6{fill:#231f20;opacity:0.15;mix-blend-mode:multiply;}</style><linearGradient id="linear-gradient" x1="100" y1="250" x2="100" gradientUnits="userSpaceOnUse"><stop offset="0" stop-color="#dcddde"/><stop offset="0.11" stop-color="#e0e1e2"/><stop offset="0.56" stop-color="#edeeee"/><stop offset="1" stop-color="#f1f2f2"/></linearGradient><linearGradient id="linear-gradient-2" x1="100" y1="80" x2="100" gradientUnits="userSpaceOnUse"><stop offset="0" stop-color="#f15b40"/><stop offset="1" stop-color="#f9aa8f"/></linearGradient></defs><g class="cls-1"><g id="Layer_2" data-name="Layer 2"><g id="icons"><polygon class="cls-2" points="200 250 0 250 0 0 140 0 200 60 200 250"/><polygon class="cls-3" points="140 0 0 0 0 80 200 80 200 60 140 0"/><polygon class="cls-4" points="140 60 200 60 140 0 140 60"/><path class="cls-5" d="M21.9,26.3h7.6V47.6c0,9.6-4.6,12.95-12,12.95a19.84,19.84,0,0,1-5.55-.8l.85-6.15a12.53,12.53,0,0,0,3.9.6c3.2,0,5.2-1.45,5.2-6.7Z"/><path class="cls-5" d="M37.85,26.75a62.38,62.38,0,0,1,10.3-.7c4.7,0,8.05.9,10.3,2.7a9.85,9.85,0,0,1,3.6,7.8,10.77,10.77,0,0,1-3.1,8C56.35,47,52.5,48.1,48,48.1A19.19,19.19,0,0,1,45.4,48V60H37.85Zm7.55,15.3a11.65,11.65,0,0,0,2.55.2c4,0,6.55-2,6.55-5.5,0-3.1-2.15-4.95-6-4.95a13,13,0,0,0-3.15.3Z"/><path class="cls-5" d="M97.05,58.45a37.71,37.71,0,0,1-11.25,1.9c-6.15,0-10.6-1.55-13.7-4.55a16.31,16.31,0,0,1-4.75-12.25C67.4,32.35,75.55,26,86.6,26A23.21,23.21,0,0,1,96,27.6l-1.6,6.1a18.67,18.67,0,0,0-7.85-1.45c-6.35,0-11.15,3.6-11.15,10.9,0,7,4.35,11.05,10.6,11.05a10.2,10.2,0,0,0,3.75-.5V46.65H84.5V40.7H97.05Z"/><path class="cls-6" d="M32.18,109.19V219.5H167V109.19ZM157,209.5H42.18V119.19H157Zm-9-48.72H108v40h40ZM73.5,172.59A22.5,22.5,0,1,0,51,150.09,22.5,22.5,0,0,0,73.5,172.59Z"/></g></g></g></svg>