<svg xmlns="http://www.w3.org/2000/svg" xmlns:xlink="http://www.w3.org/1999/xlink" viewBox="0 0 200 250"><defs><style>.cls-1{isolation:isolate;}.cls-2{fill:url(#linear-gradient);}.cls-3{fill:url(#linear-gradient-2);}.cls-4,.cls-5{fill:#fff;}.cls-4{opacity:0.3;}.cls-6{fill:#231f20;opacity:0.15;mix-blend-mode:multiply;}</style><linearGradient id="linear-gradient" x1="100" y1="250" x2="100" gradientUnits="userSpaceOnUse"><stop offset="0" stop-color="#dcddde"/><stop offset="0.11" stop-color="#e0e1e2"/><stop offset="0.56" stop-color="#edeeee"/><stop offset="1" stop-color="#f1f2f2"/></linearGradient><linearGradient id="linear-gradient-2" x1="100" y1="80" x2="100" gradientUnits="userSpaceOnUse"><stop offset="0" stop-color="#bfa344"/><stop offset="1" stop-color="#e8c453"/></linearGradient></defs><g class="cls-1"><g id="Layer_2" data-name="Layer 2"><g id="icons"><polygon class="cls-2" points="200 250 0 250 0 0 140 0 200 60 200 250"/><polygon class="cls-3" points="140 0 0 0 0 80 200 80 200 60 140 0"/><polygon class="cls-4" points="140 60 200 60 140 0 140 60"/><path class="cls-5" d="M43.8,47.1c-.15-4.05-.3-9-.3-13.85h-.15c-1.05,4.3-2.45,9.1-3.75,13L35.5,59.45H29.55L26,46.4c-1.1-3.95-2.25-8.75-3.05-13.15h-.1c-.2,4.55-.35,9.75-.6,14L21.6,60h-7L16.7,26.3H26.85l3.3,11.25c1.05,3.9,2.1,8.1,2.85,12.05h.15c1-3.9,2.1-8.35,3.2-12.1L40,26.3H49.9L51.75,60H44.3Z"/><path class="cls-5" d="M90.45,42.8c0,11.05-6.7,17.75-16.55,17.75-10,0-15.85-7.55-15.85-17.15,0-10.1,6.45-17.65,16.4-17.65C84.8,25.75,90.45,33.5,90.45,42.8Zm-24.35.45c0,6.6,3.1,11.25,8.2,11.25s8.1-4.9,8.1-11.45c0-6-2.9-11.25-8.15-11.25S66.1,36.7,66.1,43.25Z"/><path class="cls-5" d="M105.05,60,94.25,26.3h8.35l4.1,14.25c1.15,4,2.2,7.85,3,12.05h.15c.85-4.05,1.9-8.05,3.05-11.9l4.3-14.4h8.1L114,60Z"/><path class="cls-6" d="M100,108.92a54.42,54.42,0,1,0,54.42,54.42A54.42,54.42,0,0,0,100,108.92Zm32.88,61.3-45,26C81.33,200,76,196.89,76,189.32V137.37c0-7.57,5.36-10.67,11.92-6.89l45,26C139.44,160.24,139.44,166.44,132.88,170.22Z"/></g></g></g></svg>