<svg xmlns="http://www.w3.org/2000/svg" xmlns:xlink="http://www.w3.org/1999/xlink" viewBox="0 0 200 250"><defs><style>.cls-1{isolation:isolate;}.cls-2{fill:url(#linear-gradient);}.cls-3{fill:url(#linear-gradient-2);}.cls-4,.cls-5{fill:#fff;}.cls-4{opacity:0.3;}.cls-6{opacity:0.15;mix-blend-mode:multiply;}.cls-7{fill:#231f20;}</style><linearGradient id="linear-gradient" x1="100" y1="250" x2="100" gradientUnits="userSpaceOnUse"><stop offset="0" stop-color="#dcddde"/><stop offset="0.11" stop-color="#e0e1e2"/><stop offset="0.56" stop-color="#edeeee"/><stop offset="1" stop-color="#f1f2f2"/></linearGradient><linearGradient id="linear-gradient-2" x1="100" y1="80" x2="100" gradientUnits="userSpaceOnUse"><stop offset="0" stop-color="#00aeef"/><stop offset="1" stop-color="#6dcff6"/></linearGradient></defs><g class="cls-1"><g id="Layer_2" data-name="Layer 2"><g id="icons"><polygon class="cls-2" points="200 250 0 250 0 0 140 0 200 60 200 250"/><polygon class="cls-3" points="140 0 0 0 0 80 200 80 200 60 140 0"/><polygon class="cls-4" points="140 60 200 60 140 0 140 60"/><path class="cls-5" d="M43.8,47.1c-.15-4.05-.3-9-.3-13.85h-.15c-1.05,4.3-2.45,9.1-3.75,13L35.5,59.45H29.55L26,46.4c-1.1-3.95-2.25-8.75-3.05-13.15h-.1c-.2,4.55-.35,9.75-.6,14L21.6,60h-7L16.7,26.3H26.85l3.3,11.25c1.05,3.9,2.1,8.1,2.85,12.05h.15c1-3.9,2.1-8.35,3.2-12.1L40,26.3H49.9L51.75,60H44.3Z"/><path class="cls-5" d="M59.6,26.75a62.38,62.38,0,0,1,10.3-.7c4.7,0,8,.9,10.3,2.7a9.85,9.85,0,0,1,3.6,7.8,10.77,10.77,0,0,1-3.1,8c-2.6,2.45-6.45,3.55-11,3.55a19.19,19.19,0,0,1-2.6-.15V60H59.6Zm7.55,15.3a11.65,11.65,0,0,0,2.55.2c4,0,6.55-2,6.55-5.5,0-3.1-2.15-4.95-6-4.95a13,13,0,0,0-3.15.3Z"/><path class="cls-5" d="M90.79,52.55a18,18,0,0,0,7.56,2c4,0,6-1.9,6-4.35,0-3.2-3.2-4.65-6.55-4.65h-3.1V40.1H97.6c2.55-.05,5.8-1,5.8-3.75,0-2-1.6-3.4-4.8-3.4a14.92,14.92,0,0,0-6.81,1.95l-1.54-5.5a20.34,20.34,0,0,1,10-2.45c7,0,10.8,3.65,10.8,8.1,0,3.45-1.95,6.15-5.95,7.55v.1c3.9.7,7,3.65,7,7.9,0,5.75-5,9.95-13.3,9.95a19.27,19.27,0,0,1-9.66-2.3Z"/><g class="cls-6"><path class="cls-7" d="M147.35,112.75H93.94v66.18a39.42,39.42,0,0,0-14.1-2.34c-17.74,0-27.3,8.8-27.3,19.67s9.56,19.67,27.3,19.67,27.29-8.81,27.29-19.67v-57.1c7.8,2,17.89,3.23,26.92-.3C149.53,132.81,147.35,112.75,147.35,112.75Z"/></g></g></g></g></svg>