<svg xmlns="http://www.w3.org/2000/svg" xmlns:xlink="http://www.w3.org/1999/xlink" viewBox="0 0 200 250"><defs><style>.cls-1{isolation:isolate;}.cls-2{fill:url(#linear-gradient);}.cls-3{fill:#231f20;opacity:0.15;mix-blend-mode:multiply;}.cls-4{fill:url(#linear-gradient-2);}.cls-5,.cls-6{fill:#fff;}.cls-5{opacity:0.3;}</style><linearGradient id="linear-gradient" x1="100" y1="250" x2="100" gradientUnits="userSpaceOnUse"><stop offset="0" stop-color="#dcddde"/><stop offset="0.11" stop-color="#e0e1e2"/><stop offset="0.56" stop-color="#edeeee"/><stop offset="1" stop-color="#f1f2f2"/></linearGradient><linearGradient id="linear-gradient-2" x1="100" y1="80" x2="100" gradientUnits="userSpaceOnUse"><stop offset="0" stop-color="#ec008c"/><stop offset="1" stop-color="#f173ac"/></linearGradient></defs><g class="cls-1"><g id="Layer_2" data-name="Layer 2"><g id="icons"><polygon class="cls-2" points="200 250 0 250 0 0 140 0 200 60 200 250"/><path class="cls-3" d="M59.8,155.93h6.73l1.25,3.64h4.78V147.41H67.78l-1.25,3.65H59.8v-3.65L40,149.91v7.16l19.8,2.5Zm0-19.12h6.73l1.25,3.64h4.78V128.3H67.78l-1.25,3.64H59.8V128.3L40,130.8V138l19.8,2.5Zm0,38.24h6.73l1.25,3.64h4.78V166.53H67.78l-1.25,3.65H59.8v-3.65L40,169v7.16l19.8,2.5Zm0,19.11h6.73l1.25,3.65h4.78V185.65H67.78l-1.25,3.64H59.8v-3.64L40,188.15v7.16l19.8,2.5Zm0-76.47h6.73l1.25,3.65h4.78V109.18H67.78l-1.25,3.64H59.8v-3.64L40,111.68v7.16l19.8,2.5Zm0,114.71h6.73L67.78,236h4.78V223.88H67.78l-1.25,3.65H59.8v-3.65L40,226.38v7.16L59.8,236Zm0-191.18h6.73l1.25,3.65h4.78V32.71H67.78l-1.25,3.64H59.8V32.71L40,35.21v7.16l19.8,2.5Zm0-19.11h6.73l1.25,3.64h4.78V13.59H67.78l-1.25,3.65H59.8V13.59L40,16.09v7.16l19.8,2.5ZM59.8,3h6.73l1.25,3.64h4.78V0H40V4.13l19.8,2.5Zm0,95.59h6.73l1.25,3.64h4.78V90.06H67.78l-1.25,3.65H59.8V90.06L40,92.56v7.16l19.8,2.5Zm6.73,148.07H59.8V243L40,245.5V250H72.56v-7H67.78ZM59.8,79.46h6.73l1.25,3.64h4.78V70.94H67.78l-1.25,3.65H59.8V70.94L40,73.45V80.6l19.8,2.5Zm0-19.12h6.73L67.78,64h4.78V51.83H67.78l-1.25,3.64H59.8V51.83L40,54.33v7.15L59.8,64Zm0,152.94h6.73l1.25,3.64h4.78V204.77H67.78l-1.25,3.64H59.8v-3.64L40,207.27v7.15l19.8,2.5Zm13.81-110H66.88l-1.25-3.64H60.85v12.16h4.78l1.25-3.65h6.73v3.65l19.8-2.5v-7.16l-19.8-2.5Zm0-38.23H66.88l-1.25-3.64H60.85V73.54h4.78l1.25-3.64h6.73v3.64L93.41,71V63.89l-19.8-2.5Zm0,172.06H66.88l-1.25-3.65H60.85V245.6h4.78L66.88,242h6.73v3.64l19.8-2.5v-7.16l-19.8-2.5Zm0-191.18H66.88l-1.25-3.64H60.85V54.43h4.78l1.25-3.65h6.73v3.65l19.8-2.5V44.77l-19.8-2.5ZM73.61,4V7.68H66.88L65.63,4H60.85V16.19h4.78l1.25-3.64h6.73v3.64l19.8-2.5V6.53Zm0,22.77H66.88l-1.25-3.65H60.85V35.31h4.78l1.25-3.65h6.73v3.65l19.8-2.5V25.65l-19.8-2.5Zm0,57.35H66.88L65.63,80.5H60.85V92.66h4.78L66.88,89h6.73v3.64l19.8-2.5V83l-19.8-2.5Zm0,95.58H66.88l-1.25-3.64H60.85v12.16h4.78l1.25-3.65h6.73v3.65l19.8-2.5v-7.16l-19.8-2.5Zm0,19.12H66.88l-1.25-3.64H60.85v12.16h4.78l1.25-3.65h6.73v3.65l19.8-2.51v-7.15l-19.8-2.5Zm0,19.12H66.88l-1.25-3.64H60.85v12.15h4.78l1.25-3.64h6.73v3.64l19.8-2.5v-7.15l-19.8-2.5Zm0-57.35H66.88L65.63,157H60.85v12.16h4.78l1.25-3.64h6.73v3.64l19.8-2.5v-7.16L73.61,157Zm0-38.24H66.88l-1.25-3.64H60.85V130.9h4.78l1.25-3.65h6.73v3.65l19.8-2.5v-7.16l-19.8-2.5Zm0,19.12H66.88l-1.25-3.64H60.85V150h4.78l1.25-3.64h6.73V150l19.8-2.5v-7.15l-19.8-2.5Z"/><polygon class="cls-4" points="140 0 0 0 0 80 200 80 200 60 140 0"/><polygon class="cls-5" points="140 60 200 60 140 0 140 60"/><path class="cls-6" d="M15.3,26.75a67,67,0,0,1,10.15-.7c5,0,8.5.75,10.9,2.65a8.56,8.56,0,0,1,3.1,7.05,8.94,8.94,0,0,1-6,8.3v.15c2.35.95,3.65,3.2,4.5,6.3,1,3.8,2.1,8.2,2.75,9.5H33c-.55-1-1.35-3.7-2.35-7.85s-2.35-5.35-5.45-5.4h-2.3V60H15.3Zm7.55,14.5h3c3.8,0,6-1.9,6-4.85s-2.1-4.65-5.6-4.7a19,19,0,0,0-3.45.25Z"/><path class="cls-6" d="M55.25,51.35,52.84,60h-7.9L55.25,26.3h10L75.7,60H67.5l-2.6-8.65Zm8.55-5.7L61.7,38.5c-.6-2-1.2-4.5-1.7-6.5h-.11c-.5,2-1,4.55-1.54,6.5l-2,7.15Z"/><path class="cls-6" d="M82.19,26.75a67,67,0,0,1,10.15-.7c5,0,8.51.75,10.91,2.65a8.56,8.56,0,0,1,3.1,7.05,8.94,8.94,0,0,1-5.95,8.3v.15c2.35.95,3.65,3.2,4.5,6.3,1,3.8,2.1,8.2,2.75,9.5h-7.8c-.55-1-1.35-3.7-2.35-7.85S95.14,46.8,92,46.75h-2.3V60H82.19Zm7.55,14.5h3c3.79,0,6-1.9,6-4.85s-2.1-4.65-5.61-4.7a19,19,0,0,0-3.45.25Z"/></g></g></g></svg>