<svg xmlns="http://www.w3.org/2000/svg" xmlns:xlink="http://www.w3.org/1999/xlink" viewBox="0 0 200 250"><defs><style>.cls-1{isolation:isolate;}.cls-2{fill:url(#linear-gradient);}.cls-3{fill:url(#linear-gradient-2);}.cls-4,.cls-5{fill:#fff;}.cls-4{opacity:0.3;}.cls-6{opacity:0.15;mix-blend-mode:multiply;}.cls-7{fill:#231f20;}</style><linearGradient id="linear-gradient" x1="100" y1="250" x2="100" gradientUnits="userSpaceOnUse"><stop offset="0" stop-color="#dcddde"/><stop offset="0.11" stop-color="#e0e1e2"/><stop offset="0.56" stop-color="#edeeee"/><stop offset="1" stop-color="#f1f2f2"/></linearGradient><linearGradient id="linear-gradient-2" x1="100" y1="80" x2="100" gradientUnits="userSpaceOnUse"><stop offset="0" stop-color="#58595b"/><stop offset="1" stop-color="#a7a9ac"/></linearGradient></defs><g class="cls-1"><g id="Layer_2" data-name="Layer 2"><g id="icons"><polygon class="cls-2" points="200 250 0 250 0 0 140 0 200 60 200 250"/><polygon class="cls-3" points="140 0 0 0 0 80 200 80 200 60 140 0"/><polygon class="cls-4" points="140 60 200 60 140 0 140 60"/><path class="cls-5" d="M21.8,32.7h-9V26.3h25.9v6.4h-9.2V60H21.8Z"/><path class="cls-5" d="M63.35,60,60.3,53.9c-1.25-2.35-2-4.1-3-6h-.1c-.7,1.95-1.55,3.7-2.6,6L51.79,60h-8.7l9.76-17L43.44,26.3h8.75l3,6.15c1,2,1.75,3.7,2.55,5.6h.1c.8-2.15,1.45-3.65,2.3-5.6L63,26.3h8.7l-9.5,16.45L72.15,60Z"/><path class="cls-5" d="M85,32.7H76V26.3H101.9v6.4H92.7V60H85Z"/><g class="cls-6"><path class="cls-7" d="M88.3,128.83H61.15v-19.2h77.7v19.2h-27.6v81.9h-23Z"/></g></g></g></g></svg>