<svg xmlns="http://www.w3.org/2000/svg" xmlns:xlink="http://www.w3.org/1999/xlink" viewBox="0 0 200 250"><defs><style>.cls-1{isolation:isolate;}.cls-2{fill:url(#linear-gradient);}.cls-3{fill:url(#linear-gradient-2);}.cls-4,.cls-5{fill:#fff;}.cls-4{opacity:0.3;}.cls-6{opacity:0.15;mix-blend-mode:multiply;}.cls-7{fill:#231f20;}</style><linearGradient id="linear-gradient" x1="100" y1="250" x2="100" gradientUnits="userSpaceOnUse"><stop offset="0" stop-color="#dcddde"/><stop offset="0.11" stop-color="#e0e1e2"/><stop offset="0.56" stop-color="#edeeee"/><stop offset="1" stop-color="#f1f2f2"/></linearGradient><linearGradient id="linear-gradient-2" x1="100" y1="80" x2="100" gradientUnits="userSpaceOnUse"><stop offset="0" stop-color="#73a533"/><stop offset="1" stop-color="#adc32b"/></linearGradient></defs><g class="cls-1"><g id="Layer_2" data-name="Layer 2"><g id="icons"><polygon class="cls-2" points="200 250 0 250 0 0 140 0 200 60 200 250"/><polygon class="cls-3" points="140 0 0 0 0 80 200 80 200 60 140 0"/><polygon class="cls-4" points="140 60 200 60 140 0 140 60"/><path class="cls-5" d="M33.05,60l-3-6.1c-1.25-2.35-2.05-4.1-3-6h-.1c-.7,1.95-1.55,3.7-2.6,6L21.5,60H12.8l9.75-17L13.15,26.3H21.9l3,6.15c1,2,1.75,3.7,2.55,5.6h.1c.8-2.15,1.45-3.65,2.3-5.6l2.85-6.15h8.7l-9.5,16.45L41.85,60Z"/><path class="cls-5" d="M48,26.3H55.6V53.6H69V60H48Z"/><path class="cls-5" d="M75.74,52.15a19.44,19.44,0,0,0,8.45,2.1c3.51,0,5.36-1.45,5.36-3.65s-1.6-3.3-5.66-4.75c-5.6-2-9.25-5.05-9.25-10,0-5.75,4.8-10.15,12.75-10.15A20.66,20.66,0,0,1,96,27.45L94.3,33.6a16,16,0,0,0-7-1.6c-3.31,0-4.91,1.5-4.91,3.25,0,2.15,1.91,3.1,6.26,4.75,6,2.2,8.75,5.3,8.75,10,0,5.65-4.35,10.45-13.6,10.45a22.07,22.07,0,0,1-9.56-2Z"/><g class="cls-6"><path class="cls-7" d="M112.9,210.73l-9.15-18.3c-3.75-7.05-6.15-12.3-9-18.15h-.3c-2.1,5.85-4.65,11.1-7.8,18.15l-8.4,18.3H52.15L81.4,159.58l-28.2-50H79.45l8.85,18.45c3,6.15,5.25,11.1,7.65,16.8h.3c2.4-6.45,4.35-10.95,6.9-16.8l8.55-18.45h26.1L109.3,159l30,51.75Z"/></g></g></g></g></svg>